<svg width="64" height="64" viewBox="0 0 64 64" fill="none" xmlns="http://www.w3.org/2000/svg">
<path d="M58.6667 32C58.6667 46.7276 46.7276 58.6666 32 58.6666M58.6667 32C58.6667 17.2724 46.7276 5.33331 32 5.33331M58.6667 32H5.33337M32 58.6666C17.2724 58.6666 5.33337 46.7276 5.33337 32M32 58.6666C38.6701 51.3644 42.4607 41.8879 42.6667 32C42.4607 22.1121 38.6701 12.6356 32 5.33331M32 58.6666C25.33 51.3644 21.5394 41.8879 21.3334 32C21.5394 22.1121 25.33 12.6356 32 5.33331M5.33337 32C5.33337 17.2724 17.2724 5.33331 32 5.33331" stroke="#F3F3F3" stroke-width="4" stroke-linecap="round" stroke-linejoin="round"/>
</svg>
