<svg width="32" height="32" viewBox="0 0 32 32" fill="none" xmlns="http://www.w3.org/2000/svg">
<path fill-rule="evenodd" clip-rule="evenodd" d="M3.77009 1.02229C4.12004 0.672871 4.54025 0.40181 5.00288 0.227074C5.46551 0.0523371 5.96 -0.0220849 6.45357 0.00873955C6.94713 0.039564 7.42852 0.174931 7.86581 0.40587C8.30311 0.636809 8.68633 0.958046 8.99009 1.34829L12.5801 5.96029C13.2381 6.80629 13.4701 7.90829 13.2101 8.94829L12.1161 13.3283C12.0599 13.5552 12.0632 13.7927 12.1255 14.018C12.1879 14.2432 12.3072 14.4486 12.4721 14.6143L17.3861 19.5283C17.552 19.6935 17.7577 19.813 17.9833 19.8754C18.209 19.9378 18.4469 19.9408 18.6741 19.8843L23.0521 18.7903C23.5654 18.6627 24.1009 18.6531 24.6184 18.7622C25.1359 18.8714 25.622 19.0963 26.0401 19.4203L30.6521 23.0083C32.3101 24.2983 32.4621 26.7483 30.9781 28.2303L28.9101 30.2983C27.4301 31.7783 25.2181 32.4283 23.1561 31.7023C17.8774 29.8475 13.0852 26.8258 9.13609 22.8623C5.17283 18.9138 2.15119 14.1222 0.296087 8.84429C-0.427913 6.78429 0.222087 4.57029 1.70209 3.09029L3.77009 1.02229Z" fill="white"/>
</svg>
