<svg xmlns="http://www.w3.org/2000/svg">
    <symbol id="clock" viewBox="0 0 64 64">
        <path d="M32 16V32L42.6667 37.3333M58.6667 32C58.6667 46.7276 46.7276 58.6666 32 58.6666C17.2724 58.6666 5.33337 46.7276 5.33337 32C5.33337 17.2724 17.2724 5.33331 32 5.33331C46.7276 5.33331 58.6667 17.2724 58.6667 32Z" fill="transparent" stroke="currentColor" stroke-width="4" stroke-linecap="round" stroke-linejoin="round"/>
    </symbol>
    <symbol id="droplet" viewBox="0 0 64 64">
        <path d="M31.9999 7.17334L47.0933 22.2667C50.0782 25.2496 52.1114 29.0508 52.9357 33.1895C53.76 37.3281 53.3383 41.6183 51.724 45.5172C50.1098 49.4162 47.3754 52.7489 43.8669 55.0936C40.3583 57.4384 36.2332 58.6899 32.0133 58.6899C27.7933 58.6899 23.6682 57.4384 20.1597 55.0936C16.6511 52.7489 13.9168 49.4162 12.3025 45.5172C10.6882 41.6183 10.2666 37.3281 11.0909 33.1895C11.9152 29.0508 13.9484 25.2496 16.9333 22.2667L31.9999 7.17334Z" fill="transparent" stroke="currentColor" stroke-width="4" stroke-linecap="round" stroke-linejoin="round"/>
    </symbol>
    <symbol id="email" viewBox="0 0 54 54">
        <path fill-rule="evenodd" clip-rule="evenodd" d="M13.2083 16L12 17.1667V35.8333L13.2083 37H39.7917L41 35.8333V17.1667L39.7917 16H13.2083ZM14.4167 19.8041V34.6667H38.5833V19.8037L26.4998 30.41L14.4167 19.8041ZM36.666 18.3333H16.3337L26.4998 27.2566L36.666 18.3333Z" fill="currentColor"/>
    </symbol>
    <symbol id="globe" viewBox="0 0 64 64">
        <path d="M58.6667 32C58.6667 46.7276 46.7276 58.6666 32 58.6666M58.6667 32C58.6667 17.2724 46.7276 5.33331 32 5.33331M58.6667 32H5.33337M32 58.6666C17.2724 58.6666 5.33337 46.7276 5.33337 32M32 58.6666C38.6701 51.3644 42.4607 41.8879 42.6667 32C42.4607 22.1121 38.6701 12.6356 32 5.33331M32 58.6666C25.33 51.3644 21.5394 41.8879 21.3334 32C21.5394 22.1121 25.33 12.6356 32 5.33331M5.33337 32C5.33337 17.2724 17.2724 5.33331 32 5.33331" stroke="currentColor" stroke-width="4" stroke-linecap="round" stroke-linejoin="round" fill="transparent"/>
    </symbol>
    <symbol id="instagram" viewBox="0 0 78 78">
	    <path d="M28.2,16.7c-7,0-12.8,5.7-12.8,12.8s5.7,12.8,12.8,12.8S41,36.5,41,29.5S35.2,16.7,28.2,16.7z M28.2,37.7 c-4.5,0-8.2-3.7-8.2-8.2s3.7-8.2,8.2-8.2s8.2,3.7,8.2,8.2S32.7,37.7,28.2,37.7z" fill="currentColor"/>
	    <circle cx="41.5" cy="16.4" r="2.9" fill="currentColor"/>
	    <path d="M49,8.9c-2.6-2.7-6.3-4.1-10.5-4.1H17.9c-8.7,0-14.5,5.8-14.5,14.5v20.5c0,4.3,1.4,8,4.2,10.7c2.7,2.6,6.3,3.9,10.4,3.9 h20.4c4.3,0,7.9-1.4,10.5-3.9c2.7-2.6,4.1-6.3,4.1-10.6V19.3C53,15.1,51.6,11.5,49,8.9z M48.6,39.9c0,3.1-1.1,5.6-2.9,7.3 s-4.3,2.6-7.3,2.6H18c-3,0-5.5-0.9-7.3-2.6C8.9,45.4,8,42.9,8,39.8V19.3c0-3,0.9-5.5,2.7-7.3c1.7-1.7,4.3-2.6,7.3-2.6h20.6 c3,0,5.5,0.9,7.3,2.7c1.7,1.8,2.7,4.3,2.7,7.2V39.9L48.6,39.9z" fill="currentColor"/>
    </symbol>
    <symbol id="phone" viewBox="0 0 32 32">
        <path d="M3.77009 1.02229C4.12004 0.672871 4.54025 0.40181 5.00288 0.227074C5.46551 0.0523371 5.96 -0.0220849 6.45357 0.00873955C6.94713 0.039564 7.42852 0.174931 7.86581 0.40587C8.30311 0.636809 8.68633 0.958046 8.99009 1.34829L12.5801 5.96029C13.2381 6.80629 13.4701 7.90829 13.2101 8.94829L12.1161 13.3283C12.0599 13.5552 12.0632 13.7927 12.1255 14.018C12.1879 14.2432 12.3072 14.4486 12.4721 14.6143L17.3861 19.5283C17.552 19.6935 17.7577 19.813 17.9833 19.8754C18.209 19.9378 18.4469 19.9408 18.6741 19.8843L23.0521 18.7903C23.5654 18.6627 24.1009 18.6531 24.6184 18.7622C25.1359 18.8714 25.622 19.0963 26.0401 19.4203L30.6521 23.0083C32.3101 24.2983 32.4621 26.7483 30.9781 28.2303L28.9101 30.2983C27.4301 31.7783 25.2181 32.4283 23.1561 31.7023C17.8774 29.8475 13.0852 26.8258 9.13609 22.8623C5.17283 18.9138 2.15119 14.1222 0.296087 8.84429C-0.427913 6.78429 0.222087 4.57029 1.70209 3.09029L3.77009 1.02229Z" fill-rule="evenodd" clip-rule="evenodd" fill="currentColor"/>
    </symbol>
    <symbol id="shield" viewBox="0 0 64 64">
        <path d="M32.0001 58.6666C32.0001 58.6666 53.3334 48 53.3334 32V13.3333L32.0001 5.33331L10.6667 13.3333V32C10.6667 48 32.0001 58.6666 32.0001 58.6666Z" fill="transparent" stroke="currentColor" stroke-width="4" stroke-linecap="round" stroke-linejoin="round"/>
    </symbol>
    <symbol id="telegram" viewBox="0 0 54 54">
        <path d="M40.2649 15.5655L36.6431 34.8004C36.3699 36.1579 35.6573 36.4958 34.6447 35.8562L29.1264 31.2768L26.4636 34.1608C26.169 34.4926 25.9225 34.7702 25.3546 34.7702L25.7511 28.441L35.9788 18.0332C36.4235 17.5867 35.8823 17.3393 35.2876 17.7858L22.6437 26.7516L17.2003 24.833C16.0163 24.4167 15.9948 23.4996 17.4468 22.86L38.7379 13.6227C39.7237 13.2063 40.5863 13.87 40.2649 15.5655V15.5655Z" fill="currentColor"/>
    </symbol>
    <symbol id="users" viewBox="0 0 64 64">
        <path d="M45.3334 56V50.6667C45.3334 47.8377 44.2096 45.1246 42.2092 43.1242C40.2088 41.1238 37.4957 40 34.6667 40H13.3334C10.5044 40 7.79133 41.1238 5.79094 43.1242C3.79055 45.1246 2.66675 47.8377 2.66675 50.6667V56M61.3334 56V50.6667C61.3316 48.3033 60.545 46.0074 59.0971 44.1395C57.6491 42.2716 55.6218 40.9375 53.3334 40.3467M42.6667 8.34667C44.9612 8.93414 46.9948 10.2685 48.4471 12.1395C49.8994 14.0105 50.6877 16.3115 50.6877 18.68C50.6877 21.0485 49.8994 23.3495 48.4471 25.2205C46.9948 27.0915 44.9612 28.4259 42.6667 29.0133M34.6667 18.6667C34.6667 24.5577 29.8911 29.3333 24.0001 29.3333C18.109 29.3333 13.3334 24.5577 13.3334 18.6667C13.3334 12.7756 18.109 8 24.0001 8C29.8911 8 34.6667 12.7756 34.6667 18.6667Z" stroke-width="4" stroke-linecap="round" stroke-linejoin="round" fill="transparent" stroke="currentColor"/>
    </symbol>
    <symbol id="wechat" viewBox="0 0 54 54">
        <path d="M32 22.8088C29.1942 22.9595 26.7543 23.8337 24.7735 25.8088C22.7721 27.8042 21.8585 30.2494 22.1082 33.2805C21.0115 33.1409 20.0126 32.9873 19.0081 32.9003C18.6611 32.8703 18.2494 32.913 17.9555 33.0834C16.98 33.6491 16.0449 34.2879 14.9365 35C15.1399 34.0546 15.2715 33.2267 15.5045 32.4304C15.6759 31.8451 15.5965 31.5194 15.072 31.1382C11.7038 28.6941 10.284 25.0364 11.3465 21.2706C12.3295 17.7869 14.7436 15.6741 18.0237 14.5728C22.5007 13.0697 27.5321 14.6029 30.2545 18.2563C31.2377 19.5759 31.8407 21.0571 32 22.8088ZM19.0866 21.6354C19.1125 20.9467 18.5318 20.3261 17.8421 20.3054C17.1359 20.2841 16.5551 20.8388 16.5345 21.554C16.5136 22.2788 17.053 22.8597 17.7643 22.8783C18.4695 22.8966 19.0606 22.3412 19.0866 21.6354ZM25.824 20.3049C25.1318 20.318 24.5468 20.924 24.5591 21.6155C24.5717 22.3323 25.1456 22.893 25.8574 22.8842C26.5711 22.8754 27.1124 22.3087 27.1057 21.5768C27.0998 20.8584 26.5285 20.2917 25.824 20.3049Z" fill="currentColor"/>
        <path d="M38.9172 41C37.98 40.5913 37.1202 39.9781 36.2049 39.8845C35.2931 39.7912 34.3346 40.3064 33.3806 40.4019C30.4747 40.6931 27.8714 39.8999 25.7249 37.9559C21.6423 34.2579 22.2256 28.5876 26.949 25.5572C31.147 22.8638 37.3035 23.7617 40.2632 27.4988C42.8461 30.7599 42.5426 35.0888 39.3894 37.8284C38.477 38.6213 38.1487 39.2737 38.7341 40.3189C38.8422 40.5119 38.8545 40.7563 38.9172 41ZM28.2486 30.8842C28.8452 30.8848 29.3365 30.4274 29.3591 29.8503C29.383 29.2393 28.8812 28.7268 28.2564 28.7242C27.6378 28.7215 27.1197 29.2412 27.1412 29.8431C27.1615 30.4182 27.6562 30.8834 28.2486 30.8842ZM35.1261 28.7266C34.5471 28.7227 34.0552 29.1868 34.0316 29.7597C34.0066 30.3723 34.4928 30.8753 35.1118 30.8769C35.7105 30.8788 36.1836 30.4353 36.2054 29.8518C36.2286 29.2378 35.7422 28.7308 35.1261 28.7266Z" fill="currentColor"/>
    </symbol>
    <symbol id="whatsapp" viewBox="0 0 32 32">
        <path d="M27.202 4.65211C25.7352 3.1711 23.9882 1.997 22.0629 1.1983C20.1375 0.399594 18.0724 -0.00772164 15.988 0.00011085C7.254 0.00011085 0.136 7.11611 0.128 15.8521C0.128 18.6501 0.86 21.3721 2.242 23.7821L0 32.0001L8.408 29.7961C10.733 31.0646 13.3395 31.7282 15.988 31.7261H15.996C24.732 31.7261 31.848 24.6101 31.856 15.8661C31.8578 13.7822 31.4473 11.7186 30.6482 9.794C29.8492 7.86941 28.6792 6.12191 27.202 4.65211ZM15.988 29.0421C13.6264 29.0403 11.3084 28.4048 9.276 27.2021L8.796 26.9141L3.808 28.2221L5.14 23.3561L4.828 22.8541C3.50761 20.7548 2.80929 18.3242 2.814 15.8441C2.814 8.59211 8.728 2.67611 15.996 2.67611C17.7275 2.673 19.4425 3.01266 21.042 3.67549C22.6416 4.33833 24.0942 5.31123 25.316 6.53811C26.5418 7.76041 27.5136 9.2132 28.1754 10.8128C28.8372 12.4123 29.1759 14.127 29.172 15.8581C29.164 23.1361 23.25 29.0421 15.988 29.0421ZM23.218 19.1741C22.824 18.9761 20.878 18.0181 20.512 17.8821C20.148 17.7521 19.882 17.6841 19.622 18.0801C19.356 18.4741 18.596 19.3721 18.368 19.6301C18.14 19.8961 17.904 19.9261 17.508 19.7301C17.114 19.5301 15.836 19.1141 14.324 17.7601C13.144 16.7101 12.354 15.4101 12.118 15.0161C11.89 14.6201 12.096 14.4081 12.294 14.2101C12.468 14.0341 12.688 13.7461 12.886 13.5181C13.086 13.2901 13.152 13.1221 13.282 12.8581C13.412 12.5901 13.35 12.3621 13.252 12.1641C13.152 11.9661 12.362 10.0121 12.028 9.22411C11.708 8.44611 11.382 8.55411 11.138 8.54411C10.91 8.53011 10.644 8.53011 10.378 8.53011C10.1771 8.53522 9.97952 8.58174 9.79747 8.66674C9.61542 8.75174 9.45287 8.8734 9.32 9.02411C8.956 9.42011 7.938 10.3781 7.938 12.3321C7.938 14.2861 9.358 16.1641 9.558 16.4301C9.754 16.6961 12.346 20.6941 16.324 22.4141C17.264 22.8241 18.004 23.0661 18.582 23.2501C19.532 23.5541 20.39 23.5081 21.074 23.4101C21.834 23.2941 23.416 22.4501 23.75 21.5241C24.078 20.5961 24.078 19.8041 23.978 19.6381C23.88 19.4701 23.614 19.3721 23.218 19.1741Z" fill="currentColor"/>
    </symbol>
</svg>