<svg width="64" height="64" viewBox="0 0 64 64" fill="none" xmlns="http://www.w3.org/2000/svg">
<path d="M45.3334 56V50.6667C45.3334 47.8377 44.2096 45.1246 42.2092 43.1242C40.2088 41.1238 37.4957 40 34.6667 40H13.3334C10.5044 40 7.79133 41.1238 5.79094 43.1242C3.79055 45.1246 2.66675 47.8377 2.66675 50.6667V56M61.3334 56V50.6667C61.3316 48.3033 60.545 46.0074 59.0971 44.1395C57.6491 42.2716 55.6218 40.9375 53.3334 40.3467M42.6667 8.34667C44.9612 8.93414 46.9948 10.2685 48.4471 12.1395C49.8994 14.0105 50.6877 16.3115 50.6877 18.68C50.6877 21.0485 49.8994 23.3495 48.4471 25.2205C46.9948 27.0915 44.9612 28.4259 42.6667 29.0133M34.6667 18.6667C34.6667 24.5577 29.8911 29.3333 24.0001 29.3333C18.109 29.3333 13.3334 24.5577 13.3334 18.6667C13.3334 12.7756 18.109 8 24.0001 8C29.8911 8 34.6667 12.7756 34.6667 18.6667Z" stroke="white" stroke-width="4" stroke-linecap="round" stroke-linejoin="round"/>
</svg>
