<svg width="54" height="54" viewBox="0 0 54 54" fill="none" xmlns="http://www.w3.org/2000/svg">
<g clip-path="url(#clip0_0_1)">
<circle cx="26.6667" cy="26.8346" r="26.6667" fill="white"/>
<path d="M32 22.8088C29.1942 22.9595 26.7543 23.8337 24.7735 25.8088C22.7721 27.8042 21.8585 30.2494 22.1082 33.2805C21.0115 33.1409 20.0126 32.9873 19.0081 32.9003C18.6611 32.8703 18.2494 32.913 17.9555 33.0834C16.98 33.6491 16.0449 34.2879 14.9365 35C15.1399 34.0546 15.2715 33.2267 15.5045 32.4304C15.6759 31.8451 15.5965 31.5194 15.072 31.1382C11.7038 28.6941 10.284 25.0364 11.3465 21.2706C12.3295 17.7869 14.7436 15.6741 18.0237 14.5728C22.5007 13.0697 27.5321 14.6029 30.2545 18.2563C31.2377 19.5759 31.8407 21.0571 32 22.8088ZM19.0866 21.6354C19.1125 20.9467 18.5318 20.3261 17.8421 20.3054C17.1359 20.2841 16.5551 20.8388 16.5345 21.554C16.5136 22.2788 17.053 22.8597 17.7643 22.8783C18.4695 22.8966 19.0606 22.3412 19.0866 21.6354ZM25.824 20.3049C25.1318 20.318 24.5468 20.924 24.5591 21.6155C24.5717 22.3323 25.1456 22.893 25.8574 22.8842C26.5711 22.8754 27.1124 22.3087 27.1057 21.5768C27.0998 20.8584 26.5285 20.2917 25.824 20.3049Z" fill="#303030"/>
<path d="M38.9172 41C37.98 40.5913 37.1202 39.9781 36.2049 39.8845C35.2931 39.7912 34.3346 40.3064 33.3806 40.4019C30.4747 40.6931 27.8714 39.8999 25.7249 37.9559C21.6423 34.2579 22.2256 28.5876 26.949 25.5572C31.147 22.8638 37.3035 23.7617 40.2632 27.4988C42.8461 30.7599 42.5426 35.0888 39.3894 37.8284C38.477 38.6213 38.1487 39.2737 38.7341 40.3189C38.8422 40.5119 38.8545 40.7563 38.9172 41ZM28.2486 30.8842C28.8452 30.8848 29.3365 30.4274 29.3591 29.8503C29.383 29.2393 28.8812 28.7268 28.2564 28.7242C27.6378 28.7215 27.1197 29.2412 27.1412 29.8431C27.1615 30.4182 27.6562 30.8834 28.2486 30.8842ZM35.1261 28.7266C34.5471 28.7227 34.0552 29.1868 34.0316 29.7597C34.0066 30.3723 34.4928 30.8753 35.1118 30.8769C35.7105 30.8788 36.1836 30.4353 36.2054 29.8518C36.2286 29.2378 35.7422 28.7308 35.1261 28.7266Z" fill="#303030"/>
</g>
</svg>
