<svg width="32" height="32" viewBox="0 0 32 32" fill="none" xmlns="http://www.w3.org/2000/svg">
<path d="M27.202 4.65211C25.7352 3.1711 23.9882 1.997 22.0629 1.1983C20.1375 0.399594 18.0724 -0.00772164 15.988 0.00011085C7.254 0.00011085 0.136 7.11611 0.128 15.8521C0.128 18.6501 0.86 21.3721 2.242 23.7821L0 32.0001L8.408 29.7961C10.733 31.0646 13.3395 31.7282 15.988 31.7261H15.996C24.732 31.7261 31.848 24.6101 31.856 15.8661C31.8578 13.7822 31.4473 11.7186 30.6482 9.794C29.8492 7.86941 28.6792 6.12191 27.202 4.65211ZM15.988 29.0421C13.6264 29.0403 11.3084 28.4048 9.276 27.2021L8.796 26.9141L3.808 28.2221L5.14 23.3561L4.828 22.8541C3.50761 20.7548 2.80929 18.3242 2.814 15.8441C2.814 8.59211 8.728 2.67611 15.996 2.67611C17.7275 2.673 19.4425 3.01266 21.042 3.67549C22.6416 4.33833 24.0942 5.31123 25.316 6.53811C26.5418 7.76041 27.5136 9.2132 28.1754 10.8128C28.8372 12.4123 29.1759 14.127 29.172 15.8581C29.164 23.1361 23.25 29.0421 15.988 29.0421ZM23.218 19.1741C22.824 18.9761 20.878 18.0181 20.512 17.8821C20.148 17.7521 19.882 17.6841 19.622 18.0801C19.356 18.4741 18.596 19.3721 18.368 19.6301C18.14 19.8961 17.904 19.9261 17.508 19.7301C17.114 19.5301 15.836 19.1141 14.324 17.7601C13.144 16.7101 12.354 15.4101 12.118 15.0161C11.89 14.6201 12.096 14.4081 12.294 14.2101C12.468 14.0341 12.688 13.7461 12.886 13.5181C13.086 13.2901 13.152 13.1221 13.282 12.8581C13.412 12.5901 13.35 12.3621 13.252 12.1641C13.152 11.9661 12.362 10.0121 12.028 9.22411C11.708 8.44611 11.382 8.55411 11.138 8.54411C10.91 8.53011 10.644 8.53011 10.378 8.53011C10.1771 8.53522 9.97952 8.58174 9.79747 8.66674C9.61542 8.75174 9.45287 8.8734 9.32 9.02411C8.956 9.42011 7.938 10.3781 7.938 12.3321C7.938 14.2861 9.358 16.1641 9.558 16.4301C9.754 16.6961 12.346 20.6941 16.324 22.4141C17.264 22.8241 18.004 23.0661 18.582 23.2501C19.532 23.5541 20.39 23.5081 21.074 23.4101C21.834 23.2941 23.416 22.4501 23.75 21.5241C24.078 20.5961 24.078 19.8041 23.978 19.6381C23.88 19.4701 23.614 19.3721 23.218 19.1741Z" fill="white"/>
</svg>
