<svg width="146" height="146" viewBox="0 0 146 146" fill="none" xmlns="http://www.w3.org/2000/svg">
<path fill-rule="evenodd" clip-rule="evenodd" d="M132.377 52.7689C129.1 45.0242 124.483 38.1724 118.576 32.2152C112.667 26.3072 105.816 21.6899 98.1203 18.4132C90.0786 14.9881 81.6878 13.2998 73 13.2998C64.2622 13.2998 55.9221 14.9881 47.8789 18.4132C40.1834 21.6899 33.2824 26.3072 27.3752 32.2152C21.418 38.1724 16.8499 45.0242 13.5732 52.7689C10.1973 60.7621 8.50977 69.1522 8.50977 77.8408C8.50977 82.1104 8.90666 86.3793 9.80043 90.7982L29.7081 105.145L32.8355 129.62H65.3537L67.2897 130.811C68.978 132.103 70.8148 132.697 72.9992 132.697C75.1344 132.697 77.0212 132.103 78.6588 130.811L80.4456 129.62H113.312L116.39 105.145L136.199 90.7982C137.043 86.3793 137.49 82.1097 137.49 77.8408C137.49 69.1522 135.803 60.7621 132.377 52.7689Z" fill="#CC2229"/>
<path fill-rule="evenodd" clip-rule="evenodd" d="M122.845 60.1167C121.554 54.6556 118.774 49.9883 114.454 46.2156L84.2205 98.2945L110.979 41.2013C107.405 36.4848 102.887 33.2581 97.178 31.4206L78.6595 96.1593L92.2137 28.7893C87.9933 26.4556 83.5252 25.2642 78.7587 25.2642L75.7305 25.4626L73.0499 95.5624L70.2201 25.4626L67.2411 25.2642C62.4754 25.2642 57.9573 26.4556 53.7868 28.7893L67.1911 96.1593L48.8226 31.4213C43.1131 33.2589 38.4965 36.4855 35.0214 41.2021L61.9292 98.2952L31.5455 46.2163C27.2266 49.9891 24.4461 54.6564 23.1554 60.1175L57.0143 101.72L22.1624 66.7193C20.5733 70.2944 19.7795 74.0179 19.7795 77.8407C19.7795 79.9752 20.028 82.2581 20.6233 84.6917L40.1841 98.9898L42.7662 118.202H66.5466L69.9224 120.783C70.8662 121.429 71.8592 121.727 73.0007 121.776C74.0929 121.728 75.1359 121.429 75.9796 120.783L79.554 118.202H103.434L105.867 98.9898L125.377 84.6917C125.923 82.2581 126.222 79.9752 126.222 77.8407C126.222 74.0179 125.377 70.2944 123.839 66.7193L89.1863 101.719L122.845 60.1167Z" fill="#F6D330"/>
</svg>
