<svg width="204" height="122" viewBox="0 0 204 122" fill="none" xmlns="http://www.w3.org/2000/svg">
<g clip-path="url(#clip0_44_210)">
<path d="M204 0H0V122H204V0Z" fill="white"/>
<path d="M27.4044 89.3582L31.1905 62.4041H45.1631V66.8041H42.8013V108.425H45.1631V112.986H30.7218V108.425H33.5343V73.5828L27.5667 112.968H21.5269L16.0641 73.5828V108.425H18.1735V112.986H9.97021V108.425H12.1698V66.7862H9.97021V62.3862H23.5101L27.4044 89.3582Z" fill="black"/>
<path d="M101.721 108.371V112.878H89.1363V108.371H91.2637V59.4886H89.0281V55.1423H99.8997V108.389H101.721V108.371Z" fill="black"/>
<path d="M117.586 74.8348C120.417 74.8348 122.779 76.516 124.329 79.8607C125.88 83.2233 126.727 88.3923 126.727 94.4377C126.727 100.68 126.114 105.295 124.672 108.568C123.229 111.841 120.976 113.486 118.235 113.486C117.045 113.486 115.874 113.236 115.026 112.717C114.179 112.198 113.674 111.716 112.863 110.589L112.286 112.878H102.748V108.371H104.714V59.4886H102.424V55.1423H113.187V77.142C113.854 75.89 115.892 74.8348 117.586 74.8348ZM117.19 81.1485C116.829 80.2184 116.234 79.7534 115.423 79.7534C114.702 79.7534 113.89 80.5046 113.62 81.381C113.35 82.2574 113.205 83.581 113.205 85.9956V100.09V103.256C113.205 104.025 113.223 104.633 113.277 105.062C113.331 105.491 113.368 105.831 113.422 106.064C113.476 106.296 113.53 106.547 113.62 106.797C113.944 107.566 114.738 108.425 115.423 108.425C116.324 108.425 116.937 107.834 117.262 106.654C117.586 105.473 117.731 103.238 117.731 99.9466V85.62C117.731 83.5631 117.55 82.0786 117.19 81.1485Z" fill="black"/>
<path d="M148.47 79.5746C146.505 76.3015 143.621 74.656 139.816 74.656C136.012 74.656 133.128 76.3015 131.162 79.5746C129.197 82.8478 128.206 87.6949 128.206 94.1159C128.206 100.537 129.179 105.384 131.126 108.693C133.073 112.002 135.904 113.647 139.6 113.647C147.479 113.647 151.409 107.119 151.409 94.0265C151.427 87.677 150.436 82.8657 148.47 79.5746ZM142.178 94.0623C142.178 106.457 142.178 109.605 139.78 109.605C139.023 109.605 138.14 109.391 137.743 106.743C137.346 104.096 137.473 99.2671 137.473 94.1338C137.473 89.0005 137.4 84.1177 137.797 81.4884C138.194 78.8592 139.041 78.7161 139.816 78.7161C141.006 78.7161 141.529 79.3064 141.926 81.9356C142.322 84.5648 142.178 88.9827 142.178 94.0623Z" fill="black"/>
<path d="M191.073 79.5746C189.108 76.3015 186.223 74.656 182.419 74.656C178.615 74.656 175.73 76.3015 173.765 79.5746C171.8 82.8478 170.808 87.6949 170.808 94.1159C170.808 100.537 171.782 105.384 173.729 108.693C175.676 112.002 178.507 113.647 182.203 113.647C190.082 113.647 194.012 107.119 194.012 94.0265C194.03 87.677 193.038 82.8657 191.073 79.5746ZM184.781 94.0623C184.781 106.457 184.781 109.605 182.383 109.605C181.626 109.605 180.742 109.391 180.346 106.743C179.949 104.096 180.075 99.2671 180.075 94.1338C180.075 89.0005 180.003 84.1177 180.4 81.4884C180.796 78.8592 181.644 78.7161 182.419 78.7161C183.609 78.7161 184.132 79.3064 184.529 81.9356C184.925 84.5648 184.781 88.9827 184.781 94.0623Z" fill="black"/>
<path d="M165.886 87.3369C166.734 87.7662 167.761 87.802 168.609 87.3548C171.187 86.0134 171.025 81.3094 171.025 81.3094C171.025 79.324 170.862 77.7143 169.997 76.4981C169.114 75.2818 168.176 74.781 166.734 74.781C163.975 74.781 162.461 77.285 161.649 78.3582L161.379 75.8005H151.03V80.111H153.068V108.46H151.048V112.896H164.318V108.46H161.902V84.815C161.902 80.5582 164.21 79.6281 164.21 79.6281C164.21 79.6281 163.47 80.3614 163.47 82.6866C163.47 85.5841 164.841 86.8182 165.886 87.3369Z" fill="black"/>
<path d="M85.1158 87.3369C85.9632 87.7662 86.9908 87.802 87.8382 87.3548C90.4164 86.0134 90.2541 81.3094 90.2541 81.3094C90.2541 79.324 90.0918 77.7143 89.2264 76.4981C88.343 75.2818 87.4055 74.781 85.9632 74.781C83.2047 74.781 81.6903 77.285 80.8789 78.3582L80.6085 75.8005H70.2598V80.111H72.2971V108.46H70.2778V112.896H83.5473V108.46H81.1314V84.815C81.1314 80.5582 83.4391 79.6281 83.4391 79.6281C83.4391 79.6281 82.6999 80.3614 82.6999 82.6866C82.6999 85.5841 84.0701 86.8182 85.1158 87.3369Z" fill="black"/>
<path d="M68.4207 107.441C68.4207 107.441 66.3653 109.14 66.3653 105.151V87.2117C66.3653 83.8313 66.3293 81.1305 65.2836 79.3956C63.5889 76.6411 61.1729 74.781 56.5935 74.781C53.3303 74.781 51.0586 75.3712 49.1475 76.8379C47.2364 78.3224 46.1186 80.6476 46.1186 83.2053C46.1186 84.7435 46.8758 86.3532 47.7412 87.4264C48.6066 88.4995 49.7064 88.7142 51.0406 88.7142C52.2124 88.7142 53.0778 88.2312 53.9252 87.2654C54.7726 86.2995 55.007 85.137 55.043 83.8134C55.0791 82.6508 54.7365 81.9175 54.43 81.3451C54.1235 80.7907 53.799 80.3256 53.0238 79.5565C53.0238 79.5565 53.7089 78.8232 54.8086 78.8232C55.9805 78.8232 56.8099 79.02 57.2967 79.7354C57.7654 80.4508 57.9998 81.6492 57.9998 83.3305V90.4133C57.9998 90.8962 57.6032 91.2897 57.1164 91.2897H54.5923C53.5466 91.2897 51.2028 91.5222 50.1391 92.1125C49.0934 92.6848 47.3265 93.7938 46.4431 96.1905C45.8482 97.8002 45.3794 99.6425 45.3794 101.789C45.3794 105.116 46.1727 108.335 47.615 110.249C49.0573 112.163 50.5177 113.45 53.0238 113.45C57.1164 113.45 58.8472 110.302 58.8472 110.302C59.8388 111.483 60.5419 112.198 61.2811 112.628C62.0383 113.057 62.8497 113.486 64.5805 113.486C67.4471 113.486 69.3762 110.839 69.3762 110.839L68.4207 107.441ZM57.9998 103.756C57.9998 105.384 57.7294 106.421 57.4048 107.155C57.0803 107.888 56.7197 108.263 55.9986 108.263C54.4481 108.263 53.763 106.421 53.763 102.451C53.763 101.02 53.817 99.8571 53.9072 98.9628C53.9973 98.0685 54.1776 97.049 54.43 96.5482C54.6824 96.0295 55.0611 95.6897 55.5298 95.5108C55.9986 95.3319 56.4493 95.2425 57.2065 95.2425H57.3508C57.6933 95.2425 57.9818 95.5287 57.9818 95.8685V103.756H57.9998Z" fill="black"/>
<path d="M204 0V61.3846L101.36 36.3263L0 61.0805V0H204Z" fill="#E51515"/>
</g>
<defs>
<clipPath id="clip0_44_210">
<rect width="204" height="122" fill="white"/>
</clipPath>
</defs>
</svg>
